<svg width="16" height="16" viewBox="0 0 16 16" fill="none" xmlns="http://www.w3.org/2000/svg">
<g id="qrcode 1" clip-path="url(#clip0_16_532)">
<path id="Vector" d="M0 7.33333H7.33333V0H0V7.33333ZM1.33333 1.33333H6V6H1.33333V1.33333ZM2.66667 2.66667H4.66667V4.66667H2.66667V2.66667ZM16 0H8.66667V7.33333H16V0ZM14.6667 6H10V1.33333H14.6667V6ZM13.3333 4.66667H11.3333V2.66667H13.3333V4.66667ZM0 16H7.33333V8.66667H0V16ZM1.33333 10H6V14.6667H1.33333V10ZM2.66667 11.3333H4.66667V13.3333H2.66667V11.3333ZM11.3333 8.66667V11.3333H8.66667V8.66667H11.3333ZM11.3333 11.3333H13.3333V13.3333H11.3333V11.3333ZM8.66667 13.3333H11.3333V16H8.66667V13.3333ZM16 8.66667V11.3333H13.3333V8.66667H16Z" fill="#FECA76"/>
</g>
<defs>
<clipPath id="clip0_16_532">
<rect width="16" height="16" fill="white"/>
</clipPath>
</defs>
</svg>
